<?xml version="1.0" encoding="UTF-8"?>
<svg width="40px" height="40px" viewBox="0 0 40 40" version="1.1" xmlns="http://www.w3.org/2000/svg" xmlns:xlink="http://www.w3.org/1999/xlink">
    <!-- Generator: Sketch 55 (78076) - https://sketchapp.com -->
    <title>api</title>
    <desc>Created with Sketch.</desc>
    <g id="api" stroke="none" stroke-width="1" fill="none" fill-rule="evenodd">
        <path d="M19.5,35.6875 C14.2095059,35.6841758 9.25519141,33.0932363 6.23434375,28.75 L14.875,28.75 L14.875,22.1350938 L11.6305625,21.054 L12.3890625,18.024625 L21.0829063,14.296875 L17.9020625,7.9375 L8.1895625,7.9375 C14.5655586,1.68262109 24.8049473,1.78083008 31.0598262,8.15682617 C34.0302324,11.1847559 35.692125,15.2583691 35.6875,19.5 L38,19.5 C38,9.28272461 29.7172754,1 19.5,1 C9.28272461,1 1,9.28272461 1,19.5 C1,29.7172754 9.28272461,38 19.5,38 C21.6023516,38.0031074 23.6895273,37.6436582 25.66975,36.9374063 L24.89275,34.7625 C23.161627,35.3781309 21.3373535,35.691041 19.5,35.6875 Z M3.3125,19.5 C3.31134375,16.1894395 4.33166211,12.959166 6.23434375,10.25 L16.4729375,10.25 L17.9170938,13.140625 L10.4234375,16.350375 L8.8694375,22.571 L12.5625,23.8024062 L12.5625,26.4375 L4.8965625,26.4375 C3.85651563,24.2724941 3.31524609,21.9018203 3.3125,19.5 Z" id="Shape" fill="#5E6972" fill-rule="nonzero"></path>
        <rect id="Rectangle" fill="#5E6972" fill-rule="nonzero" x="27.59375" y="10.25" width="2.3125" height="2.3125"></rect>
        <rect id="Rectangle" fill="#5E6972" fill-rule="nonzero" x="22.96875" y="10.25" width="2.3125" height="2.3125"></rect>
        <path d="M32.5565429,24.2262659 L31.0019287,23.815695 L29.4482569,24.2262463 L26.6280123,21.9330679 L24.9411727,25.3519614 L25.5784431,27.9142506 L25.5643578,31.0130093 L28.2516916,34.25016 L31.002,35.0817075 L33.7521951,34.2501943 L36.4407692,31.01298 L36.4255998,27.9140783 L37.0628273,25.3519614 L35.3758634,21.932816 L32.5565429,24.2262659 Z M34.4244002,27.6739217 L34.4372308,30.29502 L32.5978049,32.5098057 L31.002,32.9922925 L29.4063084,32.50984 L27.5676422,30.2949907 L27.5795569,27.6737494 L27.0588273,25.5800386 L27.3119877,25.0669321 L28.9757431,26.4197537 L31.0020713,25.884305 L33.0294571,26.4197341 L34.6921366,25.067184 L34.9451727,25.5800386 L34.4244002,27.6739217 Z" id="Stroke-61" fill="#5E6972" fill-rule="nonzero"></path>
    </g>
</svg>