<?xml version="1.0" encoding="UTF-8"?>
<svg width="40px" height="40px" viewBox="0 0 40 40" version="1.1" xmlns="http://www.w3.org/2000/svg" xmlns:xlink="http://www.w3.org/1999/xlink">
    <!-- Generator: Sketch 55 (78076) - https://sketchapp.com -->
    <title>api_white</title>
    <desc>Created with Sketch.</desc>
    <g id="api_white" stroke="none" stroke-width="1" fill="none" fill-rule="evenodd">
        <g id="076-bitcoin-23" transform="translate(1.000000, 1.000000)" fill="#FFFFFF" fill-rule="nonzero">
            <path d="M18.5,34.6875 C13.2095059,34.6841758 8.25519141,32.0932363 5.23434375,27.75 L13.875,27.75 L13.875,21.1350938 L10.6305625,20.054 L11.3890625,17.024625 L20.0829063,13.296875 L16.9020625,6.9375 L7.1895625,6.9375 C13.5655586,0.682621094 23.8049473,0.780830078 30.0598262,7.15682617 C33.0302324,10.1847559 34.692125,14.2583691 34.6875,18.5 L37,18.5 C37,8.28272461 28.7172754,0 18.5,0 C8.28272461,0 0,8.28272461 0,18.5 C0,28.7172754 8.28272461,37 18.5,37 C20.6023516,37.0031074 22.6895273,36.6436582 24.66975,35.9374063 L23.89275,33.7625 C22.161627,34.3781309 20.3373535,34.691041 18.5,34.6875 Z M2.3125,18.5 C2.31134375,15.1894395 3.33166211,11.959166 5.23434375,9.25 L15.4729375,9.25 L16.9170938,12.140625 L9.4234375,15.350375 L7.8694375,21.571 L11.5625,22.8024062 L11.5625,25.4375 L3.8965625,25.4375 C2.85651563,23.2724941 2.31524609,20.9018203 2.3125,18.5 Z" id="Shape"></path>
            <rect id="Rectangle" x="26.59375" y="9.25" width="2.3125" height="2.3125"></rect>
            <rect id="Rectangle" x="21.96875" y="9.25" width="2.3125" height="2.3125"></rect>
        </g>
        <path d="M32.5565429,24.2262659 L31.0019287,23.815695 L29.4482569,24.2262463 L26.6280123,21.9330679 L24.9411727,25.3519614 L25.5784431,27.9142506 L25.5643578,31.0130093 L28.2516916,34.25016 L31.002,35.0817075 L33.7521951,34.2501943 L36.4407692,31.01298 L36.4255998,27.9140783 L37.0628273,25.3519614 L35.3758634,21.932816 L32.5565429,24.2262659 Z M34.4244002,27.6739217 L34.4372308,30.29502 L32.5978049,32.5098057 L31.002,32.9922925 L29.4063084,32.50984 L27.5676422,30.2949907 L27.5795569,27.6737494 L27.0588273,25.5800386 L27.3119877,25.0669321 L28.9757431,26.4197537 L31.0020713,25.884305 L33.0294571,26.4197341 L34.6921366,25.067184 L34.9451727,25.5800386 L34.4244002,27.6739217 Z" id="Stroke-61" fill="#FFFFFF" fill-rule="nonzero"></path>
    </g>
</svg>