<?xml version="1.0" encoding="UTF-8"?>
<svg width="40px" height="40px" viewBox="0 0 40 40" version="1.1" xmlns="http://www.w3.org/2000/svg" xmlns:xlink="http://www.w3.org/1999/xlink">
    <!-- Generator: Sketch 55 (78076) - https://sketchapp.com -->
    <title>chart_white</title>
    <desc>Created with Sketch.</desc>
    <g id="chart_white" stroke="none" stroke-width="1" fill="none" fill-rule="evenodd">
        <g id="010-ethereum-18" transform="translate(1.000000, 2.000000)" fill="#FFFFFF" fill-rule="nonzero">
            <path d="M11.5625,22.7277638 C17.9483242,22.7277638 23.125,17.6513386 23.125,11.3891811 C23.125,5.12702362 17.9483242,0.0505984252 11.5625,0.0505984252 C5.17667578,0.0505984252 0,5.12702362 0,11.3891811 C0.00700976562,17.6484331 5.17963867,22.7208898 11.5625,22.7277638 Z M11.5625,2.31831496 C16.6711016,2.31831496 20.8125,6.37951181 20.8125,11.3891811 C20.8125,16.3988504 16.6711016,20.4600472 11.5625,20.4600472 C6.45389844,20.4600472 2.3125,16.3988504 2.3125,11.3891811 C2.31820898,6.38177953 6.45621094,2.32391339 11.5625,2.31831496 Z" id="Shape"></path>
            <polygon id="Rectangle" transform="translate(6.075700, 31.698351) rotate(-126.009259) translate(-6.075700, -31.698351) " points="4.94521103 30.5603735 7.2274885 30.539084 7.20618837 32.8363295 4.9239109 32.857619"></polygon>
            <polygon id="Rectangle" transform="translate(2.335141, 34.367051) rotate(-126.009259) translate(-2.335141, -34.367051) " points="1.20465204 33.2290729 3.48692951 33.2077834 3.46562939 35.5050289 1.18335192 35.5263184"></polygon>
            <polygon id="Path" points="31.21875 18.1923307 31.21875 20.4600472 33.350875 20.4600472 23.0024375 32.454 13.9420625 24.6802677 8.20128125 28.7746299 9.56103125 30.6080787 13.8079375 27.5784094 23.2475625 35.6786929 34.6875 22.421622 34.6875 23.861622 37 23.861622 37 18.1923307"></polygon>
        </g>
        <polygon id="Stroke-61" stroke="#FFFFFF" stroke-width="2" points="17.504 10.966 16.534 9 14.293 10.823 12.502 10.35 10.712 10.823 8.47 9 7.5 10.966 8.079 13.294 8.066 16.154 10.329 18.88 12.502 19.537 14.675 18.88 16.939 16.154 16.925 13.294"></polygon>
    </g>
</svg>