<?xml version="1.0" encoding="UTF-8"?>
<svg width="40px" height="40px" viewBox="0 0 40 40" version="1.1" xmlns="http://www.w3.org/2000/svg" xmlns:xlink="http://www.w3.org/1999/xlink">
    <!-- Generator: Sketch 55 (78076) - https://sketchapp.com -->
    <title>coininfo_white</title>
    <desc>Created with Sketch.</desc>
    <g id="coininfo_white" stroke="none" stroke-width="1" fill="none" fill-rule="evenodd">
        <g id="Group" transform="translate(6.000000, 1.000000)" fill="#FFFFFF" fill-rule="nonzero">
            <g id="004-file">
                <rect id="Rectangle" x="0" y="23.125" width="2.33333333" height="2.3125"></rect>
                <rect id="Rectangle" x="0" y="27.75" width="2.33333333" height="2.3125"></rect>
                <path d="M20.3163333,0 L0,0 L0,20.8125 L2.33333333,20.8125 L2.33333333,2.3125 L17.5,2.3125 L17.5,10.40625 L25.6666667,10.40625 L25.6666667,34.6875 L2.33333333,34.6875 L2.33333333,32.375 L0,32.375 L0,37 L28,37 L28,7.6150625 L20.3163333,0 Z M19.8333333,8.09375 L19.8333333,2.7911875 L25.1836667,8.09375 L19.8333333,8.09375 Z" id="Shape"></path>
            </g>
            <path d="M15.5565429,15.2262659 L14.0019287,14.815695 L12.4482569,15.2262463 L9.62801232,12.9330679 L7.9411727,16.3519614 L8.57844308,18.9142506 L8.56435781,22.0130093 L11.2516916,25.25016 L14.002,26.0817075 L16.7521951,25.2501943 L19.4407692,22.01298 L19.4255998,18.9140783 L20.0628273,16.3519614 L18.3758634,12.932816 L15.5565429,15.2262659 Z M17.4244002,18.6739217 L17.4372308,21.29502 L15.5978049,23.5098057 L14.002,23.9922925 L12.4063084,23.50984 L10.5676422,21.2949907 L10.5795569,18.6737494 L10.0588273,16.5800386 L10.3119877,16.0669321 L11.9757431,17.4197537 L14.0020713,16.884305 L16.0294571,17.4197341 L17.6921366,16.067184 L17.9451727,16.5800386 L17.4244002,18.6739217 Z" id="Stroke-61"></path>
        </g>
    </g>
</svg>