<?xml version="1.0" encoding="UTF-8"?>
<svg width="40px" height="40px" viewBox="0 0 40 40" version="1.1" xmlns="http://www.w3.org/2000/svg" xmlns:xlink="http://www.w3.org/1999/xlink">
    <!-- Generator: Sketch 55 (78076) - https://sketchapp.com -->
    <title>home_white</title>
    <desc>Created with Sketch.</desc>
    <g id="home_white" stroke="none" stroke-width="1" fill="none" fill-rule="evenodd">
        <g id="095-bitcoin-5" transform="translate(1.500000, 1.000000)" fill="#FFFFFF" fill-rule="nonzero">
            <path d="M28.90625,18.4786094 L28.90625,13.8536094 L31.21875,13.8536094 L31.21875,18.4786094 L33.53125,18.4786094 L33.53125,13.8536094 L35.8229375,13.8536094 L36.9791875,13.8408906 L36.9791875,12.0660469 L18.9139375,0.021390625 L18.0860625,0.021390625 L0.5341875,11.7226406 L0.01965625,12.0787656 L0.01965625,13.8536094 L3.46875,13.8536094 L3.46875,18.4786094 L5.78125,18.4786094 L5.78125,13.8536094 L8.09375,13.8536094 L8.09375,34.6661094 L5.78125,34.6661094 L5.78125,30.0411094 L3.46875,30.0411094 L3.46875,34.6661094 L0,34.6661094 L0,36.9786094 L25.4375,36.9786094 L25.4375,34.6661094 L21.96875,34.6661094 L21.96875,13.8536094 L26.59375,13.8536094 L26.59375,18.4786094 L28.90625,18.4786094 Z M15.03125,34.6661094 L10.40625,34.6661094 L10.40625,13.8536094 L15.03125,13.8536094 L15.03125,34.6661094 Z M19.65625,34.6661094 L17.34375,34.6661094 L17.34375,13.8536094 L19.65625,13.8536094 L19.65625,34.6661094 Z M4.971875,11.5411094 L18.5,2.52235937 L32.028125,11.5411094 L4.971875,11.5411094 Z" id="Shape"></path>
            <rect id="Rectangle" x="3.46875" y="20.7911094" width="2.3125" height="2.3125"></rect>
            <rect id="Rectangle" x="3.46875" y="25.4161094" width="2.3125" height="2.3125"></rect>
        </g>
        <polygon id="Stroke-61" stroke="#FFFFFF" stroke-width="2" points="36.504 25.466 35.534 23.5 33.293 25.323 31.502 24.85 29.712 25.323 27.47 23.5 26.5 25.466 27.079 27.794 27.066 30.654 29.329 33.38 31.502 34.037 33.675 33.38 35.939 30.654 35.925 27.794"></polygon>
    </g>
</svg>