<?xml version="1.0" encoding="UTF-8"?>
<svg width="40px" height="40px" viewBox="0 0 40 40" version="1.1" xmlns="http://www.w3.org/2000/svg" xmlns:xlink="http://www.w3.org/1999/xlink">
    <!-- Generator: Sketch 55 (78076) - https://sketchapp.com -->
    <title>movement_white</title>
    <desc>Created with Sketch.</desc>
    <g id="movement_white" stroke="none" stroke-width="1" fill="none" fill-rule="evenodd">
        <g id="077-bitcoin-22-copy" transform="translate(4.000000, 2.000000)" fill="#FFFFFF" fill-rule="nonzero">
            <polygon id="Path" points="11.5362188 0.33878125 9.90128125 1.97371875 11.3963125 3.46875 0.3125 3.46875 0.3125 11.5625 2.625 11.5625 2.625 5.78125 11.3963125 5.78125 9.90128125 7.27628125 11.5362188 8.91121875 15.8224375 4.625"></polygon>
            <polygon id="Path" points="28.0625 31.21875 16.9786875 31.21875 18.4737188 29.7237187 16.8387813 28.0887813 12.5525625 32.375 16.8387813 36.6612188 18.4737188 35.0262812 16.9786875 33.53125 30.375 33.53125 30.375 25.4375 28.0625 25.4375"></polygon>
            <rect id="Rectangle" x="28.0625" y="20.8125" width="2.3125" height="2.3125"></rect>
            <rect id="Rectangle" x="0.3125" y="13.875" width="2.3125" height="2.3125"></rect>
            <path d="M25.75,0 C20.6413984,0 16.5,4.14139844 16.5,9.25 C16.5,14.3586016 20.6413984,18.5 25.75,18.5 C30.8586016,18.5 35,14.3586016 35,9.25 C34.994291,4.14371094 30.8562891,0.00570898438 25.75,0 Z M29.21875,3.251375 C31.0038555,4.28571289 32.236707,6.06005078 32.5834375,8.09375 L29.21875,8.09375 L29.21875,3.251375 Z M22.28125,15.248625 C20.4961445,14.2142871 19.263293,12.4399492 18.9165625,10.40625 L22.28125,10.40625 L22.28125,15.248625 Z M22.28125,8.09375 L18.9165625,8.09375 C19.263293,6.06005078 20.4961445,4.28571289 22.28125,3.251375 L22.28125,8.09375 Z M26.90625,16.0834375 C26.1416797,16.2221875 25.3583203,16.2221875 24.59375,16.0834375 L24.59375,10.40625 L26.90625,10.40625 L26.90625,16.0834375 Z M26.90625,8.09375 L24.59375,8.09375 L24.59375,2.4165625 C25.3583203,2.2778125 26.1416797,2.2778125 26.90625,2.4165625 L26.90625,8.09375 Z M29.21875,15.248625 L29.21875,10.40625 L32.5834375,10.40625 C32.236707,12.4399492 31.0038555,14.2142871 29.21875,15.248625 Z" id="Shape"></path>
        </g>
        <polygon id="Stroke-61" stroke="#FFFFFF" stroke-width="2" points="14.004 25.466 13.034 23.5 10.793 25.323 9.002 24.85 7.212 25.323 4.97 23.5 4 25.466 4.579 27.794 4.566 30.654 6.829 33.38 9.002 34.037 11.175 33.38 13.439 30.654 13.425 27.794"></polygon>
    </g>
</svg>