<?xml version="1.0" encoding="UTF-8"?>
<svg width="40px" height="40px" viewBox="0 0 40 40" version="1.1" xmlns="http://www.w3.org/2000/svg" xmlns:xlink="http://www.w3.org/1999/xlink">
    <!-- Generator: Sketch 55 (78076) - https://sketchapp.com -->
    <title>statistics</title>
    <desc>Created with Sketch.</desc>
    <g id="statistics" stroke="none" stroke-width="1" fill="none" fill-rule="evenodd">
        <g id="Group" transform="translate(1.500000, 1.000000)" fill="#5E6972" fill-rule="nonzero">
            <g id="087-bitcoin-12">
                <rect id="Rectangle" x="4.625" y="4.625" width="11.5625" height="2.3125"></rect>
                <rect id="Rectangle" x="9.25" y="10.40625" width="2.3125" height="2.3125"></rect>
                <rect id="Rectangle" x="4.625" y="10.40625" width="2.3125" height="2.3125"></rect>
                <rect id="Rectangle" x="4.625" y="30.0625" width="11.5625" height="2.3125"></rect>
                <rect id="Rectangle" x="4.625" y="24.28125" width="2.3125" height="2.3125"></rect>
                <rect id="Rectangle" x="9.25" y="24.28125" width="2.3125" height="2.3125"></rect>
                <rect id="Rectangle" x="4.625" y="17.34375" width="6.9375" height="2.3125"></rect>
                <path d="M34.6875,0 L34.6875,6.48309375 C28.0507695,2.65236523 19.5651953,4.92714258 15.7344668,11.563873 C11.9037383,18.2006035 14.1785156,26.6861777 20.8152461,30.5169063 C25.1074629,32.9943887 30.3952109,32.9943887 34.6874277,30.5169063 L34.6874277,37 L36.9999277,37 L36.9999277,0 L34.6875,0 Z M34.6875,27.7419063 C29.5833066,31.5793555 22.3347754,30.5524609 18.4973262,25.4482676 C14.659877,20.3440742 15.6867715,13.095543 20.7909648,9.25809375 C24.9064922,6.16396875 30.5720449,6.16396875 34.6875,9.25809375 L34.6875,27.7419063 Z" id="Shape"></path>
                <rect id="Rectangle" x="0" y="10.40625" width="2.3125" height="2.3125"></rect>
                <rect id="Rectangle" x="0" y="17.34375" width="2.3125" height="2.3125"></rect>
                <rect id="Rectangle" x="0" y="24.28125" width="2.3125" height="2.3125"></rect>
                <rect id="Rectangle" x="0" y="4.625" width="2.3125" height="2.3125"></rect>
                <rect id="Rectangle" x="0" y="30.0625" width="2.3125" height="2.3125"></rect>
            </g>
            <path d="M28.1153702,14.2262659 L26.560756,13.815695 L25.0070842,14.2262463 L22.1868396,11.9330679 L20.5,15.3519614 L21.1372704,17.9142506 L21.1231851,21.0130093 L23.8105189,24.25016 L26.5608273,25.0817075 L29.3110224,24.2501943 L31.9995965,21.01298 L31.9844271,17.9140783 L32.6216546,15.3519614 L30.9346907,11.932816 L28.1153702,14.2262659 Z M29.9832275,17.6739217 L29.9960581,20.29502 L28.1566322,22.5098057 L26.5608273,22.9922925 L24.9651357,22.50984 L23.1264695,20.2949907 L23.1383842,17.6737494 L22.6176546,15.5800386 L22.870815,15.0669321 L24.5345704,16.4197537 L26.5608986,15.884305 L28.5882844,16.4197341 L30.2509639,15.067184 L30.504,15.5800386 L29.9832275,17.6739217 Z" id="Stroke-61"></path>
        </g>
    </g>
</svg>