<?xml version="1.0" standalone="no"?><!-- Generator: Gravit.io --><svg xmlns="http://www.w3.org/2000/svg" xmlns:xlink="http://www.w3.org/1999/xlink" style="isolation:isolate" viewBox="0 0 268 85" width="268" height="85"><defs><clipPath id="_clipPath_DcKzHQbLide6FwhvZ4C4GGMGBG16bX9C"><rect width="268" height="85"/></clipPath></defs><g clip-path="url(#_clipPath_DcKzHQbLide6FwhvZ4C4GGMGBG16bX9C)"><path d=" M 94.318 34.25 L 92.613 34.25 L 92.613 50.4 L 94.367 50.4 C 99.086 50.4 102.162 47.181 102.162 42.325 C 102.162 37.513 99.033 34.251 94.318 34.251 L 94.318 34.25 Z  M 94.334 28.896 C 98.446 28.896 101.666 30.574 103.899 32.85 C 106.238 35.263 107.407 38.435 107.407 42.367 C 107.407 46.299 106.237 49.46 103.899 51.851 C 101.323 54.475 98.134 55.788 94.334 55.788 L 87.368 55.788 L 87.368 28.913 L 94.334 28.913 L 94.334 28.896 Z  M 116.355 36.536 C 114.795 38.16 114.016 40.09 114.016 42.326 C 114.016 44.583 114.796 46.513 116.355 48.114 C 117.903 49.704 119.781 50.5 121.99 50.5 C 124.166 50.5 126.039 49.705 127.609 48.114 C 129.179 46.524 129.963 44.594 129.963 42.325 C 129.963 40.079 129.179 38.149 127.609 36.536 C 126.049 34.935 124.177 34.134 121.989 34.134 C 119.77 34.134 117.892 34.935 116.355 36.536 M 131.376 32.7 C 133.986 35.38 135.29 38.6 135.29 42.359 C 135.29 46.129 133.986 49.343 131.376 52.001 C 128.778 54.648 125.649 55.971 121.99 55.971 C 118.32 55.961 115.191 54.637 112.603 52.001 C 110.005 49.331 108.706 46.118 108.706 42.359 C 108.706 38.611 110.006 35.391 112.603 32.699 C 115.213 30.019 118.341 28.679 121.99 28.679 C 125.638 28.679 128.767 30.019 131.376 32.699 M 149.84 28.73 C 153.882 28.73 157.104 30.558 159.243 32.716 L 155.491 36.57 C 153.9 34.957 152.027 34.151 149.873 34.151 C 147.675 34.151 145.802 34.957 144.253 36.57 C 142.695 38.171 141.915 40.1 141.915 42.359 C 141.915 44.616 142.695 46.546 144.254 48.148 C 145.791 49.748 147.664 50.55 149.873 50.55 C 153.275 50.55 155.904 48.378 157.05 45.845 L 149.58 45.845 L 149.58 40.69 L 163.027 40.69 C 163.401 45.716 161.795 49.365 159.21 52.001 C 156.601 54.659 153.472 55.988 149.824 55.988 C 146.143 55.988 143.019 54.659 140.454 52.001 C 137.855 49.354 136.556 46.14 136.556 42.359 C 136.556 38.611 137.856 35.391 140.453 32.699 C 143.03 30.019 146.153 28.679 149.823 28.679 L 149.84 28.729 L 149.84 28.73 Z  M 181.133 28.83 L 181.133 34.218 L 170.61 34.218 L 170.61 39.639 L 178.502 39.639 L 178.502 45.028 L 170.61 45.028 L 170.61 50.45 L 181.133 50.45 L 181.133 55.821 L 165.348 55.821 L 165.348 28.83 L 181.133 28.83 Z  M 195.7 55.972 C 192.04 55.961 188.917 54.637 186.33 52.001 C 183.731 49.331 182.432 46.118 182.432 42.358 C 182.432 38.611 183.731 35.391 186.329 32.7 C 188.939 30.02 192.062 28.68 195.699 28.68 L 195.683 28.746 C 199.725 28.746 202.939 30.59 205.103 32.733 L 201.351 36.587 C 199.771 34.985 197.891 34.184 195.716 34.184 C 193.507 34.184 191.634 34.985 190.096 36.587 C 188.538 38.21 187.758 40.14 187.758 42.375 C 187.758 44.633 188.538 46.563 190.097 48.165 C 191.645 49.755 193.517 50.55 195.716 50.55 C 197.924 50.55 199.808 49.749 201.366 48.148 L 205.119 52 C 202.971 54.187 199.784 55.97 195.7 55.97 M 220.237 46.93 L 217.85 41.241 L 215.43 46.93 L 220.237 46.93 Z  M 217.833 28.345 L 229.786 55.788 L 224.086 55.788 L 222.316 51.701 L 213.352 51.701 L 211.582 55.788 L 205.897 55.788 L 217.833 28.345 Z  M 238.055 50.494 C 239.508 50.494 241.112 49.254 241.112 47.762 C 241.112 45.306 237.904 44.964 236.094 44.32 C 232.902 43.202 230.084 40.51 230.084 36.848 C 230.084 32.313 233.664 28.659 238.079 28.659 C 242.104 28.659 245.439 31.726 245.979 35.714 L 240.755 36.848 C 240.755 35.372 239.548 34.132 238.11 34.132 C 236.65 34.132 235.443 35.372 235.443 36.864 C 235.443 39.287 238.428 39.931 240.246 40.486 C 243.549 41.465 246.463 44.05 246.463 47.794 C 246.463 52.329 242.501 55.991 238.095 55.991 C 234.045 55.991 230.385 52.941 229.789 48.936 L 235.014 47.794 C 235.014 49.295 236.602 50.519 238.079 50.519 L 238.055 50.494 Z  M 253.982 28.896 L 253.982 39.656 L 262.735 39.656 L 262.735 28.896 L 267.98 28.896 L 267.98 55.788 L 262.735 55.788 L 262.735 45.011 L 253.982 45.011 L 253.982 55.788 L 248.736 55.788 L 248.736 28.896 L 253.982 28.896 Z " fill-rule="evenodd" fill="rgb(255,255,255)"/><g><clipPath id="_clipPath_wYhva069NFM60sH2qEPhBbuAQ7go3DJi"><path d=" M 0 0.122 L 77.103 0.122 L 77.103 84.215 L 0 84.215 L 0 0.122 Z " fill="rgb(255,255,255)"/></clipPath><g clip-path="url(#_clipPath_wYhva069NFM60sH2qEPhBbuAQ7go3DJi)"><path d=" M 75.173 1.184 L 71.245 0.122 L 65.665 3.166 L 56.224 10.811 L 51.469 9.395 L 46.301 8.475 L 38.551 9.395 L 30.801 8.475 L 25.633 9.395 L 20.879 10.811 L 11.439 3.166 L 5.856 0.122 L 1.93 1.184 L 0 4.157 L 0 15.553 L 1.378 20.296 L 1.516 25.038 L 4.548 31.268 L 4.754 37.833 L 3.376 45.213 L 2.687 54.273 L 6.133 60.006 L 11.507 64.714 L 12.679 65.74 L 16.951 74.871 L 23.59 79.728 L 26.047 81.525 L 38.549 84.215 L 38.553 84.215 L 51.056 81.525 L 53.513 79.728 L 60.152 74.871 L 64.424 65.741 L 65.595 64.714 L 70.97 60.006 L 74.415 54.273 L 73.726 45.213 L 72.348 37.833 L 72.555 31.268 L 75.586 25.038 L 75.724 20.296 L 77.103 15.553 L 77.103 4.157 L 75.173 1.184 Z " fill-rule="evenodd" fill="rgb(204,142,88)"/></g></g><path d=" M 54.501 26.525 L 50.849 25.888 L 49.333 19.446 L 38.551 31.69 L 30.801 22.89 L 27.769 19.446 L 26.253 25.888 L 22.601 26.525 L 19.707 29.639 L 21.24 34.117 L 22.119 31.727 L 26.202 30.241 L 28.992 34.223 L 29.062 36.983 L 26.047 47.053 L 24.574 54.981 L 32.369 46.593 L 36.439 45.213 L 38.551 31.703 L 40.664 45.213 L 44.734 46.593 L 52.529 54.981 L 51.056 47.053 L 48.041 36.983 L 48.111 34.223 L 50.901 30.241 L 54.983 31.728 L 55.862 34.117 L 57.395 29.639 L 54.501 26.525 Z " fill-rule="evenodd" fill="rgb(204,142,88)"/><path d=" M 16.744 12.297 L 11.163 5.856 L 5.237 4.015 L 2.894 4.581 L 1.998 8.545 L 1.998 15.695 L 5.168 21.499 L 10.698 25.039 L 16.193 20.154 L 16.744 12.297 Z " fill-rule="evenodd" fill="rgb(45,33,19)"/><path d=" M 38.553 30.241 L 37.14 16.102 L 38.553 16.332 L 38.553 30.241 Z " fill-rule="evenodd" fill="rgb(44,24,0)"/><g><clipPath id="_clipPath_tvVq8UccEZHD2zsFr3fzgAz9c1gRvOeH"><path d=" M 0 0.122 L 38.553 0.122 L 38.553 39.692 L 0 39.692 L 0 0.122 Z " fill="rgb(255,255,255)"/></clipPath><g clip-path="url(#_clipPath_tvVq8UccEZHD2zsFr3fzgAz9c1gRvOeH)"><path d=" M 26.202 10.527 L 20.879 10.81 L 11.439 3.166 L 5.856 0.122 L 1.93 1.183 L 0 4.157 L 0 11.377 L 1.998 12.863 L 1.998 8.545 L 2.894 4.581 L 5.237 4.015 L 11.163 5.855 L 16.744 12.297 L 16.193 20.154 L 10.698 25.038 L 7.098 36.984 L 13.85 39.691 L 19.277 33.674 L 21.24 34.117 L 19.707 29.639 L 21.692 27.503 L 22.602 26.525 L 26.253 25.888 L 27.769 19.446 L 31.318 19.163 L 34.328 16.103 L 36.83 19.871 L 38.553 31.692 L 38.553 12.297 L 26.202 10.527 Z " fill-rule="evenodd" fill="rgb(168,99,58)"/></g></g><path d=" M 6.133 60.006 L 5.381 51.122 L 9.378 41.566 L 13.85 39.691 L 7.097 36.984 L 24.083 12.864 L 16.193 20.154 L 10.698 25.038 L 4.548 31.268 L 3.376 45.212 L 2.687 54.272 L 6.133 60.006 Z " fill-rule="evenodd" fill="rgb(204,142,88)"/><path d=" M 21.774 25.322 L 27.769 19.446 L 26.253 25.888 L 22.601 26.525 L 21.378 27.841 L 21.774 25.322 Z " fill-rule="evenodd" fill="rgb(168,99,58)"/><path d=" M 26.047 66.554 L 21.774 62.767 L 18.191 49.601 L 20.138 42.806 L 19.277 36.983 L 26.047 47.053 L 30.801 44.858 L 36.439 45.212 L 35.969 48.539 L 32.041 50.45 L 30.801 53.636 L 31.421 56.467 L 32.556 57.775 L 29.767 64.855 L 26.563 64.855 L 24.083 61.422 L 24.083 63.9 L 26.047 66.554 Z " fill-rule="evenodd" fill="rgb(235,232,219)"/><path d=" M 16.193 20.154 L 16.744 12.297 L 21.24 13.854 L 24.083 12.864 L 16.193 20.154 Z  M 15.504 13.288 L 16.193 20.154 L 16.744 12.297 L 13.644 8.793 L 15.504 13.288 Z " fill-rule="evenodd" fill="rgb(93,41,0)"/><g><clipPath id="_clipPath_NukUEp8nY982KrYV20SmAywzoFP8J048"><path d=" M 0 11.377 L 10.698 11.377 L 10.698 31.267 L 0 31.267 L 0 11.377 Z " fill="rgb(255,255,255)"/></clipPath><g clip-path="url(#_clipPath_NukUEp8nY982KrYV20SmAywzoFP8J048)"><path d=" M 4.548 31.268 L 1.516 25.038 L 0 15.553 L 0 11.377 L 1.998 12.863 L 1.998 15.695 L 5.168 21.499 L 10.698 25.039 L 4.548 31.268 Z " fill-rule="evenodd" fill="rgb(168,99,58)"/></g></g><path d=" M 21.24 34.117 L 21.24 30.719 L 26.925 28.055 L 26.202 30.241 L 22.119 31.728 L 21.24 34.117 Z " fill-rule="evenodd" fill="rgb(168,99,58)"/><path d=" M 26.357 37.833 L 22.997 36.824 L 21.24 34.117 L 19.276 33.674 L 18.191 34.878 L 19.276 36.983 L 20.381 38.626 L 26.047 47.053 L 29.061 36.983 L 26.357 37.833 Z " fill-rule="evenodd" fill="rgb(214,183,149)"/><path d=" M 30.284 72.925 L 28.725 67.319 L 26.046 66.554 L 21.774 62.767 L 20.514 58.137 L 15.194 64.855 L 12.679 65.74 L 16.951 74.871 L 23.59 79.728 L 28.725 77.059 L 33.639 74.505 L 30.284 72.925 Z " fill-rule="evenodd" fill="rgb(219,213,195)"/><path d=" M 60.358 12.297 L 65.94 5.856 L 71.866 4.015 L 74.209 4.581 L 75.104 8.545 L 75.104 15.695 L 71.934 21.499 L 66.404 25.039 L 60.91 20.154 L 60.358 12.297 Z " fill-rule="evenodd" fill="rgb(45,33,19)"/><path d=" M 48.11 36.983 L 48.11 34.223 L 50.901 30.241 L 54.984 31.728 L 55.862 34.117 L 54.105 36.824 L 50.745 37.833 L 48.11 36.983 Z " fill-rule="evenodd" fill="rgb(44,24,0)"/><g><g><clipPath id="_clipPath_hO8FOeq66khHHVZEOCqpUQqs3DAdaAYf"><path d=" M 48.457 34.571 L 48.457 37.335 L 51.088 38.185 L 54.442 37.175 L 56.196 34.465 L 55.319 32.073 L 51.243 30.585" fill="rgb(255,255,255)"/></clipPath><g clip-path="url(#_clipPath_hO8FOeq66khHHVZEOCqpUQqs3DAdaAYf)"><path d=" M 51.978 35.383 C 53.252 35.383 54.32 34.476 54.608 33.254 C 54.622 33.378 54.631 33.504 54.631 33.632 C 54.631 35.205 53.468 36.48 52.034 36.48 C 50.6 36.48 49.437 35.205 49.437 33.632 L 49.439 33.56 C 49.819 34.624 50.813 35.384 51.979 35.384" fill-rule="evenodd" fill="rgb(77,47,0)"/></g></g><g><clipPath id="_clipPath_xCHB28MAi6WB2GGO6Xy8R1jvr0d4L0e7"><path d=" M 48.457 34.571 L 48.457 37.335 L 51.088 38.185 L 54.442 37.175 L 56.196 34.465 L 55.319 32.073 L 51.243 30.585" fill="rgb(255,255,255)"/></clipPath><g clip-path="url(#_clipPath_xCHB28MAi6WB2GGO6Xy8R1jvr0d4L0e7)"><path d=" M 51.978 35.383 C 50.813 35.383 49.82 34.624 49.439 33.56 C 49.474 32.02 50.622 30.784 52.034 30.784 C 53.351 30.784 54.439 31.86 54.607 33.254 C 54.32 34.476 53.252 35.384 51.978 35.384" fill-rule="evenodd" fill="rgb(44,24,0)"/></g></g><g><clipPath id="_clipPath_oISYdutzf7zuaWv1dPw8XKVOqCBgfFWE"><path d=" M 48.457 34.571 L 48.457 37.335 L 51.088 38.185 L 54.442 37.175 L 56.196 34.465 L 55.319 32.073 L 51.243 30.585" fill="rgb(255,255,255)"/></clipPath><g clip-path="url(#_clipPath_oISYdutzf7zuaWv1dPw8XKVOqCBgfFWE)"><path d=" M 53.1 33.721 L 54.442 33.295 C 54.442 33.295 53.926 31.86 51.914 32.179 C 51.914 32.179 52.946 33.083 53.1 33.721 Z " fill-rule="evenodd" fill="rgb(236,217,203)"/></g></g></g><g><path d=" M 38.872 29.922 L 40.287 15.932 L 38.872 16.16 L 38.872 29.922 Z " fill-rule="evenodd" fill="rgb(44,24,0)"/><path d=" M 45.39 49.919 L 41.46 48.028 L 36.289 48.028 L 32.358 49.918 L 31.116 53.071 L 31.737 55.872 L 34.997 59.584 L 38.872 60.774 L 38.872 60.775 L 38.876 60.775 L 38.876 60.774 L 42.752 59.584 L 46.012 55.872 L 46.632 53.071 L 45.39 49.919 Z " fill-rule="evenodd" fill="rgb(38,38,38)"/><path d=" M 40.597 55.172 L 41.959 55.662 L 43.735 55.662 L 45.046 53.316 L 42.528 51.495 L 38.876 50.725 L 38.872 50.725 L 35.22 51.495 L 32.703 53.315 L 34.013 55.662 L 35.789 55.662 L 37.152 55.172 L 35.979 56.748 L 32.873 57.166 L 34.996 59.584 L 38.872 60.774 L 38.876 60.774 L 42.752 59.584 L 44.876 57.166 L 41.77 56.748 L 40.597 55.172 Z  M 50.875 64.172 L 47.667 64.172 L 38.877 62.177 L 38.877 62.176 L 38.872 62.176 L 30.082 64.172 L 26.874 64.172 L 24.391 60.775 L 24.391 63.226 L 26.357 65.853 L 30.082 66.903 L 34.996 64.592 L 38.872 65.747 L 38.876 65.747 L 42.752 64.592 L 47.667 66.903 L 51.392 65.853 L 53.358 63.226 L 53.358 60.775 L 50.875 64.172 Z " fill-rule="evenodd" fill="rgb(0,0,0)"/><path d=" M 47.667 66.903 L 42.752 64.592 L 38.874 65.747 L 34.996 64.592 L 30.081 66.903 L 34.996 69.6 L 38.872 70.37 L 38.876 70.37 L 42.752 69.6 L 47.667 66.903 Z " fill-rule="evenodd" fill="rgb(145,138,133)"/><path d=" M 47.667 64.172 L 44.876 57.166 L 42.752 59.584 L 38.874 60.774 L 34.996 59.584 L 32.873 57.166 L 30.081 64.172 L 38.874 62.176 L 47.667 64.172 Z " fill-rule="evenodd" fill="rgb(92,82,74)"/><path d=" M 47.667 66.903 L 42.752 69.6 L 38.874 70.37 L 34.996 69.6 L 30.081 66.903 L 29.038 66.609 L 30.598 72.156 L 35.789 74.573 L 38.872 75.413 L 38.876 75.413 L 41.959 74.573 L 47.149 72.156 L 48.711 66.609 L 47.667 66.903 Z " fill-rule="evenodd" fill="rgb(235,232,219)"/><g><clipPath id="_clipPath_7XvnHNsHcqv04VOLpWS2BASyCTRrXQyB"><path d=" M 38.872 0.12 L 77.466 0.12 L 77.466 39.273 L 38.872 39.273 L 38.872 0.12 Z " fill="rgb(255,255,255)"/></clipPath><g clip-path="url(#_clipPath_7XvnHNsHcqv04VOLpWS2BASyCTRrXQyB)"><path d=" M 51.237 10.416 L 56.565 10.696 L 66.015 3.132 L 71.603 0.121 L 75.534 1.171 L 77.466 4.113 L 77.466 11.257 L 75.466 12.727 L 75.466 8.456 L 74.568 4.534 L 72.223 3.974 L 66.291 5.794 L 60.704 12.168 L 61.256 19.943 L 66.756 24.775 L 70.361 36.595 L 63.601 39.274 L 58.169 33.32 L 56.203 33.758 L 57.738 29.328 L 55.751 27.214 L 54.841 26.246 L 51.185 25.616 L 49.668 19.242 L 46.115 18.962 L 43.102 15.934 L 40.597 19.663 L 38.873 31.358 L 38.873 12.168 L 51.237 10.416 Z " fill-rule="evenodd" fill="rgb(168,99,58)"/></g></g><path d=" M 71.326 59.374 L 72.078 50.584 L 68.078 41.128 L 63.601 39.273 L 70.361 36.593 L 53.358 12.728 L 61.256 19.942 L 66.756 24.774 L 72.913 30.938 L 74.085 44.736 L 74.775 53.701 L 71.326 59.374 Z " fill-rule="evenodd" fill="rgb(204,142,88)"/><path d=" M 56.565 10.697 L 51.805 9.296 L 46.632 8.386 L 38.874 9.296 L 31.116 8.386 L 25.943 9.296 L 21.183 10.696 L 26.513 10.416 L 38.873 12.167 L 38.876 12.167 L 51.236 10.417 L 56.565 10.697 Z  M 55.668 25.055 L 49.668 19.241 L 51.185 25.615 L 54.841 26.245 L 56.065 27.548 L 55.668 25.055 Z " fill-rule="evenodd" fill="rgb(168,99,58)"/><path d=" M 51.392 65.853 L 55.668 62.106 L 59.255 49.078 L 57.307 42.355 L 58.169 36.594 L 51.392 46.557 L 46.632 44.386 L 40.989 44.736 L 41.459 48.028 L 45.391 49.918 L 46.632 53.071 L 46.012 55.872 L 44.876 57.166 L 47.667 64.172 L 50.874 64.172 L 53.358 60.775 L 53.358 63.226 L 51.392 65.853 Z " fill-rule="evenodd" fill="rgb(235,232,219)"/><path d=" M 38.876 31.354 L 49.667 19.242 L 46.115 18.962 L 43.101 15.932 L 43.654 13.498 L 38.876 12.168 L 38.872 12.168 L 34.095 13.498 L 34.647 15.932 L 31.634 18.962 L 28.081 19.242 L 38.872 31.354 L 38.872 31.358 L 38.874 31.356 L 38.876 31.358 L 38.876 31.354 Z " fill-rule="evenodd" fill="rgb(168,99,58)"/><path d=" M 61.256 19.942 L 60.704 12.167 L 56.203 13.708 L 53.358 12.728 L 61.256 19.942 Z " fill-rule="evenodd" fill="rgb(93,41,0)"/><path d=" M 61.945 13.148 L 61.255 19.942 L 60.704 12.167 L 63.808 8.7 L 61.945 13.148 Z " fill-rule="evenodd" fill="rgb(93,41,0)"/><path d=" M 72.913 30.938 L 75.948 24.775 L 77.465 15.389 L 77.465 11.257 L 75.465 12.727 L 75.465 15.529 L 72.292 21.272 L 66.757 24.775 L 72.913 30.938 Z  M 56.203 33.757 L 56.203 30.395 L 50.513 27.759 L 51.237 29.922 L 55.323 31.393 L 56.203 33.757 Z " fill-rule="evenodd" fill="rgb(168,99,58)"/><path d=" M 44.994 34.3 L 46.632 22.648 L 38.872 31.358 L 44.994 34.3 Z " fill-rule="evenodd" fill="rgb(204,142,88)"/><g><clipPath id="_clipPath_PsugCCgn9ROCNhITBsrwIUQFh63kxBaC"><path d=" M 23.897 73.72 L 53.851 73.72 L 53.851 83.328 L 23.897 83.328 L 23.897 73.72 Z " fill="rgb(255,255,255)"/></clipPath><g clip-path="url(#_clipPath_PsugCCgn9ROCNhITBsrwIUQFh63kxBaC)"><path d=" M 53.851 78.888 L 43.791 73.72 L 41.959 74.573 L 38.874 75.413 L 35.789 74.573 L 33.957 73.72 L 23.897 78.888 L 26.357 80.667 L 38.872 83.327 L 38.872 83.328 L 38.876 83.328 L 51.392 80.667 L 53.851 78.888 Z " fill-rule="evenodd" fill="rgb(128,118,100)"/></g></g><path d=" M 15.96 37.287 L 14.148 39.273 L 9.671 41.128 L 5.671 50.583 L 6.422 59.374 L 11.802 64.032 L 11.802 58.043 L 13.624 52.683 L 17.304 45.734 L 17.044 36.051 L 15.96 37.287 Z  M 68.078 41.128 L 63.6 39.273 L 61.788 37.287 L 60.703 36.051 L 60.444 45.734 L 64.124 52.683 L 65.945 58.043 L 65.945 64.033 L 71.325 59.374 L 72.077 50.584 L 68.078 41.128 Z " fill-rule="evenodd" fill="rgb(219,213,195)"/><path d=" M 58.169 33.32 L 56.203 33.757 L 54.444 36.437 L 51.081 37.434 L 48.374 36.594 L 51.392 46.557 L 57.063 38.219 L 58.169 36.594 L 59.255 34.51 L 58.169 33.32 Z " fill-rule="evenodd" fill="rgb(214,183,149)"/><path d=" M 60.704 36.05 L 59.255 34.51 L 58.169 36.594 L 57.307 42.354 L 59.255 49.078 L 56.93 57.524 L 62.256 64.172 L 64.773 65.047 L 69.708 60.775 L 60.704 36.05 Z " fill-rule="evenodd" fill="rgb(207,199,175)"/><path d=" M 62.256 64.172 L 56.93 57.524 L 55.668 62.106 L 51.392 65.853 L 48.711 66.609 L 47.15 72.156 L 43.792 73.72 L 48.711 76.247 L 53.851 78.888 L 60.497 74.082 L 64.773 65.047 L 62.256 64.172 Z " fill-rule="evenodd" fill="rgb(219,213,195)"/><path d=" M 17.045 36.05 L 18.493 34.51 L 19.58 36.594 L 20.442 42.354 L 18.493 49.078 L 20.819 57.524 L 15.493 64.172 L 12.975 65.047 L 8.04 60.775 L 17.045 36.05 Z " fill-rule="evenodd" fill="rgb(207,199,175)"/><path d=" M 29.306 36.594 L 29.306 33.862 L 26.512 29.922 L 22.425 31.393 L 21.545 33.757 L 23.305 36.437 L 26.667 37.434 L 29.306 36.594 Z " fill-rule="evenodd" fill="rgb(44,24,0)"/></g><g><g><clipPath id="_clipPath_aFfBUenHywVXHsD9W3pMGou27v7AF78M"><path d=" M 22.379 32.073 L 21.502 34.465 L 23.256 37.175 L 26.609 38.185 L 29.24 37.335 L 29.24 34.571 L 26.455 30.585" fill="rgb(255,255,255)"/></clipPath><g clip-path="url(#_clipPath_aFfBUenHywVXHsD9W3pMGou27v7AF78M)"><path d=" M 25.719 35.383 C 24.445 35.383 23.377 34.476 23.09 33.254 C 23.075 33.378 23.067 33.504 23.067 33.632 C 23.067 35.205 24.229 36.48 25.664 36.48 C 27.097 36.48 28.26 35.205 28.26 33.632 L 28.258 33.56 C 27.878 34.624 26.885 35.384 25.719 35.384" fill-rule="evenodd" fill="rgb(77,47,0)"/></g></g><g><clipPath id="_clipPath_J5sucroz7oIDBBfc7GzzcjMSnbxDHiBZ"><path d=" M 22.379 32.073 L 21.502 34.465 L 23.256 37.175 L 26.609 38.185 L 29.24 37.335 L 29.24 34.571 L 26.455 30.585" fill="rgb(255,255,255)"/></clipPath><g clip-path="url(#_clipPath_J5sucroz7oIDBBfc7GzzcjMSnbxDHiBZ)"><path d=" M 25.719 35.383 C 26.885 35.383 27.878 34.624 28.259 33.56 C 28.222 32.02 27.075 30.784 25.663 30.784 C 24.345 30.784 23.258 31.86 23.089 33.254 C 23.376 34.476 24.444 35.384 25.719 35.384" fill-rule="evenodd" fill="rgb(44,24,0)"/></g></g><g><clipPath id="_clipPath_FscJT1OOLHdtZx3HYyjsfVzJyWBBp4lN"><path d=" M 22.379 32.073 L 21.502 34.465 L 23.256 37.175 L 26.609 38.185 L 29.24 37.335 L 29.24 34.571 L 26.455 30.585" fill="rgb(255,255,255)"/></clipPath><g clip-path="url(#_clipPath_FscJT1OOLHdtZx3HYyjsfVzJyWBBp4lN)"><path d=" M 24.597 33.721 L 23.256 33.295 C 23.256 33.295 23.772 31.86 25.784 32.179 C 25.784 32.179 24.752 33.083 24.597 33.721 Z " fill-rule="evenodd" fill="rgb(236,217,203)"/></g></g></g><g><path d=" M 38.862 31.731 L 36.242 48.495 L 41.486 48.495 L 38.862 31.731 Z " fill-rule="evenodd" fill="rgb(217,170,139)"/><path d=" M 67.142 68.08 L 67.142 67.755 L 68.192 67.755 L 68.192 68.08 L 67.847 68.08 L 67.847 69.178 L 67.49 69.178 L 67.49 68.08 L 67.142 68.08 Z  M 69.665 67.75 L 69.795 67.75 L 69.795 69.178 L 69.425 69.178 L 69.425 68.544 L 69.124 68.861 L 69.084 68.861 L 68.784 68.544 L 68.784 69.178 L 68.414 69.178 L 68.414 67.751 L 68.548 67.751 L 69.101 68.369 L 69.665 67.75 Z " fill-rule="evenodd" fill="rgb(204,142,88)"/><path d=" M 68.468 66.414 C 67.345 66.414 66.431 67.334 66.431 68.464 C 66.431 69.595 67.345 70.515 68.468 70.515 C 69.592 70.515 70.506 69.595 70.506 68.465 C 70.508 67.336 69.597 66.419 68.468 66.414 M 68.468 70.788 C 67.19 70.782 66.158 69.743 66.16 68.465 C 66.157 67.187 67.19 66.147 68.468 66.141 C 69.747 66.147 70.78 67.186 70.777 68.465 C 70.779 69.743 69.746 70.782 68.468 70.788" fill-rule="evenodd" fill="rgb(204,142,88)"/></g></g></svg>